<svg width="147" height="43" viewBox="0 0 147 43" fill="none" xmlns="http://www.w3.org/2000/svg">
<g clip-path="url(#clip0_19_2)">
<path d="M14.4976 42.63C14.4706 42.6031 14.4436 42.5762 14.4166 42.5493C13.9037 41.9038 10.718 37.9232 7.45136 32.8399C6.47946 31.2261 5.83152 29.9351 5.96651 29.6124C6.29047 28.7517 11.9599 28.2945 13.6877 29.0745C14.2277 29.3165 14.2007 29.6124 14.2007 29.8007C14.2007 30.5806 14.1737 32.6785 14.1737 32.6785C14.1737 33.1088 14.5246 33.4585 14.9566 33.4585C15.3885 33.4585 15.7395 33.1088 15.7395 32.6785V27.4607C15.7395 27.0035 15.2536 26.8959 15.1456 26.869C14.2277 26.869 12.3919 26.869 10.3941 26.869C6.0205 26.869 5.0216 27.0573 4.29268 26.5731C2.67284 25.5242 0.0541098 18.4506 -0.026882 14.47C-0.107874 8.84875 3.23978 3.98059 7.9373 1.58686C9.9081 0.591709 12.1219 0.0537904 14.4706 0.0537904C21.9489 -1.37237e-06 28.0773 5.59435 28.8872 12.8024C28.8872 12.8024 28.8872 12.8024 28.8872 12.8293C29.0492 14.5776 19.4111 14.9541 17.4943 14.4431C17.1974 14.3624 17.1164 14.0666 17.1164 13.9321C17.1164 12.6142 17.1164 8.87565 17.1164 8.87565C17.1164 8.44531 16.7654 8.09566 16.3334 8.09566C15.9015 8.09566 15.5505 8.44531 15.5505 8.87565L15.5775 15.7341C15.5775 16.1644 15.9555 16.272 16.0635 16.2989C17.1434 16.2989 19.6811 16.2989 22.0569 16.2989C25.2425 16.2989 26.5924 16.6755 27.4833 17.3479C28.0772 17.8051 28.2932 18.6658 28.1042 19.7685C26.2684 29.7738 14.9296 42.119 14.4976 42.63ZM45.2475 19.365C48.1092 20.5754 49.891 21.9471 49.891 24.9056C49.891 27.9448 47.5693 29.9082 44.0056 29.9082C41.1169 29.9082 38.7952 28.5903 37.6343 26.3311L37.4453 25.9545L40.8469 23.9911L41.0629 24.3677C41.8188 25.6049 42.6828 26.1428 43.9246 26.1428C45.0045 26.1428 45.7065 25.6587 45.7065 24.9594C45.7065 24.1794 45.1935 23.8836 43.5737 23.1843L42.7637 22.8346C40.577 21.8933 38.5522 20.6292 38.5522 17.4823C38.5522 14.6852 40.712 12.7218 43.8166 12.7218C46.1654 12.7218 47.7582 13.6362 48.8651 15.5727L49.0811 15.9224L45.7874 18.0471L45.5715 17.6437C45.0315 16.6486 44.4916 16.4603 43.8436 16.4603C43.1417 16.4603 42.7098 16.8368 42.7098 17.4285C42.7098 18.1009 43.0337 18.3968 44.4646 19.0154L45.2475 19.365ZM69.356 19.9299L71.7588 13.2597H75.8894L69.761 30.2041H68.8431L65.1445 22.2429C64.9825 21.8664 64.7935 21.436 64.6315 21.0057C64.4695 21.4091 64.2806 21.8664 64.1186 22.2429L60.285 30.1772H59.3671L53.1577 13.2328H57.5582L59.988 19.903C60.15 20.3333 60.312 20.8443 60.4469 21.3284C60.6089 20.8443 60.7979 20.3064 61.0139 19.8492L64.1996 13.0714H65.0905L68.3301 19.8492C68.5461 20.2795 68.7351 20.8174 68.8971 21.3284C69.0591 20.8712 69.2211 20.3602 69.356 19.9299ZM80.7219 29.6931V12.91H84.8795V29.6931H80.7219ZM98.5401 24.0449V20.2795H106.261V27.8104L106.099 27.9448C105.208 28.671 102.86 29.8813 99.7009 29.8813C94.3285 29.8813 90.6029 26.3311 90.6029 21.2747C90.6029 16.2989 94.2205 12.6949 99.188 12.6949C101.915 12.6949 103.94 13.4748 105.316 15.0348L105.586 15.3307L102.752 18.1278L102.455 17.8051C101.672 16.9982 100.835 16.4872 99.188 16.4872C96.6503 16.4872 94.8684 18.4506 94.8684 21.2478C94.8684 24.1794 96.7582 26.0621 99.7009 26.0621C100.673 26.0621 101.699 25.9007 102.374 25.6318V24.018H98.5401V24.0449ZM119.652 24.0449V20.2795H127.373V27.8104L127.211 27.9448C126.32 28.671 123.971 29.8813 120.813 29.8813C115.44 29.8813 111.715 26.3311 111.715 21.2747C111.715 16.2989 115.332 12.6949 120.3 12.6949C123.027 12.6949 125.051 13.4748 126.428 15.0348L126.698 15.3307L123.863 18.1278L123.567 17.8051C122.784 16.9982 121.947 16.4872 120.3 16.4872C117.762 16.4872 115.98 18.4506 115.98 21.2478C115.98 24.1794 117.87 26.0621 120.84 26.0621C121.812 26.0621 122.838 25.9007 123.513 25.6318V24.018H119.652V24.0449ZM142.654 12.91H147L141.007 24.0718V29.6931H136.822V24.3139L130.478 12.91H135.121L138.064 18.2623C138.388 18.854 138.712 19.6071 138.955 20.2526C139.198 19.634 139.522 18.8809 139.819 18.2892L142.654 12.91Z" fill="#FC8019"/>
</g>
<defs>
<clipPath id="clip0_19_2">
<rect width="147" height="42.63" fill="white"/>
</clipPath>
</defs>
</svg>
